<svg width="153" height="265" viewBox="0 0 153 265" fill="none" xmlns="http://www.w3.org/2000/svg">
<path d="M136.344 121.382C132.113 117.109 126.819 114.387 120.612 113.098C119.5 104.182 116.444 97.5312 112.675 92.7322C124.681 78.8359 130 58.2947 125.4 38.7672C119.756 14.8537 100.613 0 75.4313 0C23.325 0 0 60.3345 0 120.131C0 179.927 23.325 240.262 75.4313 240.262C100.613 240.262 119.762 225.408 125.4 201.494C130.1 181.579 124.469 160.612 111.963 146.716C116.162 141.973 118.812 136.23 120.137 129.635C122.406 130.517 123.969 131.65 124.975 132.663C137.494 145.302 137.038 157.265 136.381 222.774C136.213 240.293 136.006 234.63 136.006 255.998C136.006 260.421 139.588 264.006 144.006 264.006C148.425 264.006 152.006 260.421 152.006 255.998C152.006 234.693 152.206 240.406 152.381 222.93C153.156 146.065 153.55 138.776 136.344 121.382ZM105.144 120.131C105.144 149.876 71.4938 140.472 90.2875 149.876C120 164.748 120 224.244 75.4313 224.244C30.8625 224.244 16 164.748 16 120.131C16 75.5135 30.8563 16.0174 75.4313 16.0174C120.006 16.0174 120 75.5135 90.2875 90.3859C77 97.0369 105.144 90.3859 105.144 120.131Z" fill="#1CCB00"/>
</svg>
